<svg width="332" height="617" viewBox="0 0 332 617" fill="none" xmlns="http://www.w3.org/2000/svg">
<path fill-rule="evenodd" clip-rule="evenodd" d="M297 0C295.343 0 294 1.34315 294 3V16C294 17.6569 295.343 19 297 19H310C311.657 19 313 17.6569 313 16V3C313 1.34315 311.657 0 310 0H297ZM210.5 32.5H332L331.336 212.454L265.598 174.5C264.163 173.672 263.022 174.343 263.05 176L264.551 266.562C264.579 268.219 265.764 270.233 267.199 271.062L330.984 307.888L330.625 405.063C330.093 405.021 329.551 405 329 405C320 405 314.6 411 311 417C307.4 411 302 405 293 405C282.2 405 275 413.133 275 423.133C275 433.133 278.15 438.6 290.75 452.6C296.15 458.6 311 473 311 473C311 473 324.514 459.895 330.447 453.48L330 574.5L324.065 576.478C324.097 576.672 324.115 576.773 324.118 576.777L284.822 586.524L194.118 570.833C194.118 570.833 205.041 487.026 205.397 484.054C205.872 480.131 205.99 480.012 210.146 478.704C210.264 478.586 215.891 476.825 224 474.353V455.5H220.5C179.67 455.5 146.564 422.433 146.5 381.618L146.692 381.442L135.176 368.942L125.131 358.038L136.626 346.543L133.374 343.29L111.546 365.118L79.6709 331.419L79.25 331.818V331.5L63.759 313.173L42.6896 335.215L33.8704 326.785L49.4367 310.5H1C0.447715 310.5 0 310.052 0 309.5V296.5C0 295.948 0.447715 295.5 0.999999 295.5H41.5V272C41.5 270.343 42.8431 269 44.5 269H86V261.5C86 259.843 87.3431 258.5 89 258.5H95.0036C95.4132 258.5 95.8177 258.55 96.209 258.647C96.2904 257.871 96.4029 257.043 96.5576 255.983C97.9636 246.227 101.685 237.016 107.503 228.896C117.952 214.292 134.448 204.791 152.061 203.203C152.641 203.157 153.27 203.097 153.656 203.06L153.657 203.06C153.778 203.048 153.876 203.039 153.939 203.033C154.595 202.97 158.228 203.005 161 203.07V167.5C161 159.216 167.716 152.5 176 152.5H200.5V42.5C200.5 36.9772 204.977 32.5 210.5 32.5ZM131.793 372.058L140.491 381.5H82.5091L101.357 361.041L109.829 369.997L111.454 371.715L113.126 370.043L121.876 361.294L131.793 372.058ZM98.1888 357.691L79.25 378.249V337.669L98.1888 357.691ZM270.061 184.999L331.307 220.359L331.013 299.982L271.397 265.563L270.061 184.999ZM192 320.5H185.91C186.033 320.438 186.156 320.376 186.279 320.313C187.345 319.768 187.552 319.622 187.406 319.501C187.309 319.428 182.764 313.332 177.309 305.964L167.394 292.572L154.97 274.187C148.133 264.079 142.509 255.813 142.461 255.813C142.412 255.801 142.364 263.97 142.339 273.944C142.303 291.408 142.291 292.111 142.073 292.523C141.758 293.117 141.515 293.359 141.006 293.626C140.618 293.82 140.279 293.856 138.448 293.856H136.352L135.794 293.505C135.43 293.275 135.164 292.972 134.982 292.62L134.727 292.075L134.752 267.775L134.788 243.464L135.164 242.991C135.358 242.737 135.77 242.409 136.061 242.252C136.558 242.009 136.752 241.985 138.848 241.985C141.321 241.985 141.733 242.082 142.376 242.785C142.558 242.979 149.285 253.111 157.333 265.315C165.382 277.519 176.388 294.184 181.794 302.364L191.612 317.235L192 316.979V320.5ZM179.321 240.531C179.903 240.822 180.376 241.379 180.545 241.961C180.642 242.276 180.667 249.014 180.642 264.2L180.606 285.991L176.764 280.101L172.909 274.211V258.371C172.909 248.13 172.958 242.373 173.03 242.094C173.224 241.416 173.648 240.882 174.23 240.567C174.727 240.313 174.909 240.288 176.812 240.288C178.606 240.288 178.921 240.313 179.321 240.531ZM23.3235 280.513C23.3235 278.856 24.6666 277.513 26.3235 277.513H29.3235C30.9803 277.513 32.3235 278.856 32.3235 280.513V283.513C32.3235 285.17 30.9803 286.513 29.3235 286.513H26.3235C24.6666 286.513 23.3235 285.17 23.3235 283.513V280.513ZM150 186C150 189.314 147.314 192 144 192C140.686 192 138 189.314 138 186C138 182.686 140.686 180 144 180C147.314 180 150 182.686 150 186ZM307 617C310.314 617 313 614.314 313 611C313 607.686 310.314 605 307 605C303.686 605 301 607.686 301 611C301 614.314 303.686 617 307 617ZM220 47C220 49.7614 217.761 52 215 52C212.239 52 210 49.7614 210 47C210 44.2386 212.239 42 215 42C217.761 42 220 44.2386 220 47ZM231 52C233.761 52 236 49.7614 236 47C236 44.2386 233.761 42 231 42C228.239 42 226 44.2386 226 47C226 49.7614 228.239 52 231 52ZM252 47C252 49.7614 249.761 52 247 52C244.239 52 242 49.7614 242 47C242 44.2386 244.239 42 247 42C249.761 42 252 44.2386 252 47ZM195 164C193.343 164 192 165.343 192 167V169C192 170.657 193.343 172 195 172H229C230.657 172 232 170.657 232 169V167C232 165.343 230.657 164 229 164H195ZM285.137 91C297.07 91 303 96.632 303 105.629C303 112.358 298.827 116.746 293.19 117.478C297.948 118.429 300.73 121.135 301.243 126.474L301.317 127.456L301.382 128.374L301.438 129.233L301.477 129.88L301.518 130.644L301.54 131.08L301.571 131.773L301.596 132.427L301.608 132.803L301.625 133.405L301.639 134.094L301.644 134.427L301.654 135.392L301.657 136.398L301.657 137H289.351L289.352 136.749L289.356 136.262L289.363 135.787L289.385 134.636L289.39 134.251L289.394 133.646L289.394 133.259L289.39 132.854L289.385 132.536L289.375 132.09L289.36 131.617L289.341 131.115L289.316 130.58L289.301 130.299L289.276 129.86L289.247 129.399L289.202 128.747L289.163 128.23C289.152 128.07 289.139 127.914 289.125 127.762L289.093 127.462C288.687 123.925 287.272 122.48 284.849 121.997L284.645 121.959C284.507 121.936 284.366 121.915 284.222 121.896L284.004 121.871L283.948 121.865L283.893 121.86L283.668 121.84L283.438 121.824L283.203 121.811L282.966 121.802L282.725 121.796L282.479 121.793L263 121.793V112.212H282.941C283.267 112.212 283.583 112.205 283.888 112.193L284.191 112.178L284.487 112.159L284.776 112.136L284.812 112.133L284.848 112.129L284.918 112.123L285.197 112.093C285.381 112.071 285.56 112.047 285.735 112.019L285.993 111.976C289.229 111.394 290.847 109.691 290.847 106.367C290.847 102.637 288.212 100.376 282.941 100.376H263V91H285.137ZM276.012 129.857C277.626 129.857 278.302 130.746 278.543 131.597L278.574 131.719L278.6 131.84L278.617 131.936L278.625 131.984L278.637 132.077L278.646 132.168L278.649 132.213L278.654 132.301L278.656 132.345L278.657 132.428V137H263V129.857H276.012ZM258.347 503.549L262.858 486.431C262.858 486.431 258.94 484.41 251.224 485.005C231.278 486.193 222.256 500.221 223.087 514.01C223.686 523.217 229.11 527.07 233.858 530.443C237.571 533.08 240.872 535.425 241.132 539.806C241.251 542.184 239.708 545.631 235.552 545.869C229.141 546.344 221.187 540.282 221.187 540.282L218.1 553.358C218.1 553.358 226.055 561.917 240.539 560.966C252.529 560.253 260.84 550.624 260.009 536.478C259.29 525.611 251.653 520.713 245.633 516.851C241.708 514.334 238.47 512.258 238.283 509.255C238.283 507.829 238.283 502.242 247.187 501.647C253.242 501.172 258.347 503.549 258.347 503.549ZM300.466 305.499C299.031 304.671 296.694 304.651 295.245 305.456L278.149 314.952C276.7 315.757 276.689 317.08 278.124 317.909L301.643 331.487C303.078 332.316 305.415 332.335 306.864 331.531L323.96 322.034C325.409 321.23 325.42 319.906 323.985 319.078L300.466 305.499ZM202 387C196 393 187 394.5 187 394.5C187 394.5 196 396 202 402C208 408 209.5 417 209.5 417C209.5 417 211 408 217 402C223 396 232 394.5 232 394.5C232 394.5 223 393 217 387C211 381 209.5 372 209.5 372C209.5 372 208 381 202 387ZM237 361C237 361 243 360 247 356C251 352 252 346 252 346C252 346 253 352 257 356C261 360 267 361 267 361C267 361 261 362 257 366C253 370 252 376 252 376C252 376 251 370 247 366C243 362 237 361 237 361Z" fill="#1B1D20"/>
</svg>
